<svg width="128" height="128" viewBox="0 0 128 128" fill="none" xmlns="http://www.w3.org/2000/svg">
<g clip-path="url(#clip0_3_72)">
<path d="M0.00999832 64.035C0.00999832 81.0089 6.75284 97.2875 18.7552 109.29C30.7575 121.292 47.0361 128.035 64.01 128.035C80.9839 128.035 97.2625 121.292 109.265 109.29C121.267 97.2875 128.01 81.0089 128.01 64.035C128.01 47.0611 121.267 30.7825 109.265 18.7802C97.2625 6.77784 80.9839 0.0350037 64.01 0.0350037C47.0361 0.0350037 30.7575 6.77784 18.7552 18.7802C6.75284 30.7825 0.00999832 47.0611 0.00999832 64.035Z" fill="#95C4F8"/>
<path d="M5.385 38.41C3.4475 42.835 2.01 47.4725 1.1225 52.285C0.698749 54.6975 0.68625 54.735 0.355 57.46C0.355 63.31 1.8675 70.21 3.43 75.585C15.08 76.175 33.555 76.175 33.555 76.175L43.6925 60.675L37.03 60.5075C24.53 60.5075 16.03 43.0075 5.405 38.5075L5.385 38.41ZM109.885 51.41C103.022 51.41 100.185 60.4725 91.01 60.4725L94.01 81.5975C94.01 81.5975 117.51 83.5725 119.51 84.085C120.642 84.3763 123.222 83.5413 125.235 82.76C127.035 76.86 128.01 70.585 128.01 64.135C128.01 63.6788 127.985 63.2288 127.975 62.7725C127.604 62.4763 113.85 51.4725 109.85 51.4725L109.885 51.41Z" fill="#7E7E92"/>
<path d="M84.635 115.035L118.635 97.285C122.547 90.86 125.36 83.66 126.81 76.035C126.81 76.035 113.31 76.41 107.935 74.035C101.323 71.11 86.31 50.41 76.935 38.035C75.1975 35.8475 73.4975 33.81 71.8975 32.0225C69.1225 28.9475 61.01 28.0225 59.8975 28.0225C58.9375 28.0225 51.16 37.1725 45.5225 44.0225C36.9725 54.4725 26.8975 67.0225 21.8975 72.0225L13.5725 89.0225L84.635 115.035Z" fill="#6E6E84"/>
<path d="M57.635 89.91C56.7025 89.445 54.535 88.2725 52.635 85.76C50.735 83.2475 50.7225 81.5975 48.4725 80.4725C45.9475 79.21 45.9725 79.0975 42.9725 77.5975C39.9725 76.0975 39.9725 75.0975 38.16 72.9725C36.1725 70.6475 33.085 70.7725 30.085 69.435C27.085 68.0975 25.81 65.735 23.9725 64.8475C22.135 63.96 20.9725 64.9308 19.31 64.0813C17.0475 62.93 16.9225 59.6563 14.0975 59.9938C11.2725 60.3313 10.5725 61.3188 8.635 59.5988C5.41 56.7238 3.91 58.5363 0.309999 57.4363C0.0801716 59.6497 -0.0353984 61.8734 -0.0362511 64.0988C-0.0362511 69.4988 0.639999 74.7488 1.90125 79.7238C4.75125 80.28 7.87625 80.8713 10.9762 81.5613C20.6512 83.7238 46.1012 91.7238 55.1012 93.2238C64.1012 94.7238 58.5387 90.3488 57.6012 89.8738L57.635 89.91Z" fill="#00A07D"/>
<path d="M0.248749 69.41C1.78625 88.035 11.2862 104.41 25.3737 115.035H48.4987L79.9987 96.035C53.7487 96.035 39.1237 69.535 0.248749 69.41Z" fill="#52C883"/>
<path d="M64.01 128.035C95.26 128.035 121.26 105.66 126.885 76.035C103.26 76.042 74.26 105.66 48.01 102.035C33.51 100.035 29.76 96.0225 11.01 99.935C22.5225 116.935 42.01 128.06 64.01 128.06V128.035Z" fill="#34BE71"/>
<path d="M104.385 93.535C104.164 93.535 103.952 93.4472 103.795 93.2909C103.638 93.1346 103.55 92.9225 103.55 92.7013V83.7138C103.55 83.4925 103.638 83.2805 103.795 83.1241C103.952 82.9678 104.164 82.88 104.385 82.88C104.606 82.88 104.818 82.9678 104.975 83.1241C105.132 83.2805 105.22 83.4925 105.22 83.7138V92.7013C105.22 92.9225 105.132 93.1346 104.975 93.2909C104.818 93.4472 104.606 93.535 104.385 93.535Z" fill="#674447"/>
<path d="M109.635 82.91C109.635 85.81 107.285 88.1725 104.373 88.1725C101.46 88.1725 99.11 85.8225 99.11 82.91C99.11 79.9975 101.46 71.0725 104.373 71.0725C107.285 71.0725 109.635 79.9975 109.635 82.91Z" fill="#00A07D"/>
<path d="M104.385 71.035C103.656 71.035 102.96 71.5988 102.335 72.485H102.335C104.998 72.485 107.148 80.66 107.148 83.31C107.148 85.6225 105.51 87.5475 103.348 88.01C103.686 88.0785 104.036 88.1155 104.395 88.1155C107.295 88.1155 109.658 85.7655 109.658 82.853C109.658 79.9405 107.308 71.0155 104.395 71.0155L104.385 71.035Z" fill="#36B294"/>
<path d="M118.01 94.66C117.789 94.66 117.577 94.5722 117.42 94.4159C117.263 94.2596 117.175 94.0475 117.175 93.8263V84.8388C117.175 84.3775 117.549 84.005 118.01 84.005C118.471 84.005 118.845 84.3788 118.845 84.8388V93.8263C118.845 94.0475 118.757 94.2596 118.6 94.4159C118.443 94.5722 118.231 94.66 118.01 94.66Z" fill="#674447"/>
<path d="M123.26 84.035C123.26 86.935 120.91 89.2975 117.998 89.2975C115.085 89.2975 112.735 86.9475 112.735 84.035C112.735 81.1225 115.085 72.1975 117.998 72.1975C120.91 72.1975 123.26 81.1225 123.26 84.035Z" fill="#00A07D"/>
<path d="M118.01 72.285C117.281 72.285 116.585 72.8488 115.96 73.735H115.96C118.623 73.735 120.773 81.91 120.773 84.56C120.773 86.8725 119.135 88.7975 116.973 89.26C117.311 89.3285 117.661 89.3655 118.02 89.3655C120.92 89.3655 123.283 87.0155 123.283 84.103C123.283 81.203 120.933 72.2655 118.02 72.2655L118.01 72.285Z" fill="#36B294"/>
<path d="M121.385 92.285C86.01 85.56 78.51 113.16 22.885 113.16C33.9975 122.473 48.26 128.035 63.885 128.035C89.135 128.035 110.885 113.41 121.26 92.285H121.385Z" fill="#44A67D"/>
<path d="M77.01 38.035C75.2725 35.8475 73.5725 33.81 71.9725 32.0225C69.1975 28.9475 61.085 28.0225 59.9725 28.0225C59.0125 28.0225 51.235 37.1725 45.5975 44.0225C43.4225 46.6725 41.1475 49.4725 38.885 52.2475C39.8637 53.61 41.76 55.535 44.56 55.26C50.0725 54.7225 51.1475 48.26 55.3225 48.7975C60.9975 49.53 60.135 66.0475 66.085 66.0475C71.8725 66.0475 67.86 53.5475 74.6975 50.9225C79.735 49.035 81.585 54.4475 90.0725 55.1475C85.435 49.21 80.7975 42.9475 77.0725 38.0225L77.01 38.035Z" fill="#C3E1F5"/>
<path d="M79.51 41.285C78.6825 40.1825 77.8725 39.11 77.11 38.0975C75.3725 35.91 73.6725 33.8725 72.0725 32.085C69.2975 29.01 61.185 28.085 60.0725 28.085C59.4037 28.085 55.4225 32.535 51.1475 37.5475C55.8225 33.835 58.36 35.36 59.235 39.6975C61.235 49.71 63.3975 57.6975 65.8975 51.4225C68.3975 45.1475 67.2975 41.46 74.635 42.21C77.535 42.5063 78.1225 41.6588 79.51 41.2763V41.285Z" fill="#EDF5FB"/>
<path d="M120.135 56.91C116.16 54.135 111.785 51.4225 109.835 51.4225C105.485 51.4225 102.747 55.0475 99.01 57.7225L99.0127 57.7243C105.225 56.6755 105.675 64.6743 108.55 64.6743C111.913 64.6743 112 60.3868 115.3 61.8368C121.713 64.6743 116.888 58.0493 120.138 56.9118L120.135 56.91Z" fill="#C3E1F5"/>
<path d="M116.26 54.285C113.598 52.635 111.173 51.385 109.86 51.385C106.885 51.385 104.673 53.085 102.36 55.01C105.635 56.435 108.235 60.5975 112.26 57.9225C114.923 56.1475 115.41 55.0725 116.26 54.285Z" fill="#EDF5FB"/>
<path d="M97.26 97.285C96.9847 97.285 96.7207 97.1757 96.5259 96.9812C96.3312 96.7867 96.2216 96.5228 96.2213 96.2475V85.0725C96.2213 84.4988 96.6863 84.035 97.26 84.035C97.8338 84.035 98.2988 84.5 98.2988 85.0725V96.2475C98.2984 96.5228 98.1888 96.7867 97.9941 96.9812C97.7993 97.1757 97.5353 97.285 97.26 97.285Z" fill="#674447"/>
<path d="M103.885 84.035C103.885 87.6475 100.96 90.5725 97.3475 90.5725C93.735 90.5725 90.81 87.6475 90.81 84.035C90.81 80.4225 93.735 69.285 97.3475 69.285C100.96 69.285 103.885 80.3975 103.885 84.035Z" fill="#00A07D"/>
<path d="M97.26 69.41C96.3525 69.41 95.485 70.1113 94.71 71.2225H94.7102C98.0227 71.2225 100.698 81.385 100.698 84.7225C100.698 87.5975 98.6727 89.9975 95.9602 90.5725C96.3815 90.6575 96.8165 90.7038 97.2602 90.7038C100.873 90.7038 103.798 87.7788 103.798 84.1663C103.797 80.5538 100.873 69.4163 97.2602 69.4163L97.26 69.41Z" fill="#36B294"/>
<path d="M111.635 95.66C111.375 95.66 111.125 95.5566 110.941 95.3726C110.757 95.1886 110.654 94.939 110.654 94.6788V84.1163C110.654 83.575 111.092 83.135 111.635 83.135C112.177 83.135 112.616 83.5738 112.616 84.1163V94.6788C112.616 94.8076 112.591 94.9352 112.542 95.0543C112.492 95.1733 112.42 95.2815 112.329 95.3726C112.238 95.4637 112.13 95.536 112.011 95.5853C111.891 95.6346 111.764 95.66 111.635 95.66Z" fill="#674447"/>
<path d="M117.76 83.16C117.76 86.5725 114.997 89.3475 111.572 89.3475C108.147 89.3475 105.385 86.585 105.385 83.16C105.385 79.735 108.147 69.285 111.572 69.285C114.985 69.285 117.76 79.785 117.76 83.16Z" fill="#00A07D"/>
<path d="M111.635 69.285C110.778 69.285 109.96 69.9475 109.223 70.9975H109.223C112.348 70.9975 114.885 80.5975 114.885 83.7475C114.885 86.46 112.973 88.735 110.41 89.2725C110.808 89.353 111.219 89.3965 111.642 89.3965C115.054 89.3965 117.829 86.634 117.829 83.209C117.829 79.7965 115.067 69.334 111.642 69.334L111.635 69.285Z" fill="#36B294"/>
<path d="M89.26 98.41C89.1474 98.4102 89.036 98.3881 88.9319 98.3452C88.8279 98.3022 88.7334 98.2392 88.6537 98.1597C88.5741 98.0801 88.5109 97.9857 88.4678 97.8817C88.4247 97.7777 88.4025 97.6663 88.4025 97.5538V88.3288C88.4025 87.8563 88.7862 87.4725 89.26 87.4725C89.7337 87.4725 90.1175 87.8563 90.1175 88.3288V97.5538C90.1175 97.6663 90.0953 97.7777 90.0522 97.8817C90.0091 97.9857 89.9459 98.0801 89.8663 98.1597C89.7866 98.2392 89.6921 98.3022 89.5881 98.3452C89.484 98.3881 89.3725 98.4102 89.26 98.41Z" fill="#674447"/>
<path d="M94.635 87.535C94.635 90.51 92.2225 92.935 89.235 92.935C86.26 92.935 83.835 90.5225 83.835 87.535C83.835 84.5475 86.2475 75.385 89.235 75.385C92.21 75.385 94.635 84.5475 94.635 87.535Z" fill="#00A07D"/>
<path d="M89.26 75.41C88.5112 75.41 87.7975 75.9888 87.1475 76.8975H87.1477C89.8727 76.8975 92.0852 85.285 92.0852 88.01C92.0852 90.385 90.4102 92.36 88.1727 92.835C88.5202 92.9053 88.879 92.9433 89.2477 92.9433C92.2227 92.9433 94.6477 90.5308 94.6477 87.5433C94.6477 84.5683 92.2352 75.3933 89.2477 75.3933L89.26 75.41Z" fill="#36B294"/>
<path d="M64.01 128.035C80.885 128.035 96.135 121.523 107.635 110.91C100.685 112.06 90.135 100.31 79.135 104.598C74.235 106.51 58.635 119.723 45.135 125.223C51.135 127.085 57.4975 128.098 64.135 128.098L64.01 128.035Z" fill="#5F5F74"/>
<path d="M56.2666 88.1639C56.2666 92.4256 54.5737 96.5128 51.5602 99.5263C48.5466 102.54 44.4594 104.233 40.1977 104.233C35.9359 104.233 31.8487 102.54 28.8352 99.5263C25.8217 96.5128 24.1288 92.4256 24.1288 88.1639C24.1288 83.9021 25.8217 79.8149 28.8352 76.8014C31.8487 73.7879 35.9359 72.0949 40.1977 72.0949C44.4594 72.0949 48.5466 73.7879 51.5602 76.8014C54.5737 79.8149 56.2666 83.9021 56.2666 88.1639Z" stroke="#555555" stroke-width="7.99991" stroke-linecap="round" stroke-linejoin="round"/>
<path d="M69.4386 88.0768L76.6919 57.613" stroke="#FFE420" stroke-width="5.99989" stroke-linecap="round" stroke-linejoin="round"/>
<path d="M72.6736 57.3954L83.7581 57.5988" stroke="#555555" stroke-width="5.99989" stroke-linecap="round" stroke-linejoin="round"/>
<path d="M108.635 88.1639C108.635 92.4256 106.942 96.5128 103.929 99.5263C100.915 102.54 96.8282 104.233 92.5664 104.233C88.3047 104.233 84.2175 102.54 81.204 99.5263C78.1905 96.5128 76.4975 92.4256 76.4975 88.1639C76.4975 83.9021 78.1905 79.8149 81.204 76.8014C84.2175 73.7879 88.3047 72.0949 92.5664 72.0949C96.8282 72.0949 100.915 73.7879 103.929 76.8014C106.942 79.8149 108.635 83.9021 108.635 88.1639Z" stroke="#555555" stroke-width="7.99991" stroke-linecap="round" stroke-linejoin="round"/>
<path d="M49.1294 63.4156L69.4386 88.0768H92.6491L76.6919 63.4156H49.1294Z" stroke="#FFE420" stroke-width="5.99989" stroke-linecap="round" stroke-linejoin="round"/>
<path d="M40.4254 88.0769L52.5162 52.0788L63.4265 52" stroke="#FFE420" stroke-width="5.99989" stroke-linecap="round" stroke-linejoin="round"/>
</g>
<defs>
<clipPath id="clip0_3_72">
<rect width="128" height="128" fill="white"/>
</clipPath>
</defs>
</svg>
